<mxfile host="65bd71144e">
    <diagram name="Page-1" id="1lXPFGz7iOlsJA85ldTf">
        <mxGraphModel dx="1585" dy="1063" grid="1" gridSize="10" guides="1" tooltips="1" connect="1" arrows="1" fold="1" page="1" pageScale="1" pageWidth="827" pageHeight="1169" math="0" shadow="0">
            <root>
                <mxCell id="0"/>
                <mxCell id="1" parent="0"/>
                <mxCell id="2" style="edgeStyle=none;html=1;exitX=0.5;exitY=0;exitDx=0;exitDy=0;entryX=0.5;entryY=1;entryDx=0;entryDy=0;startArrow=classic;startFill=1;" edge="1" parent="1" source="Aw-TtiJFQ2EfJVWeR47O-1" target="DEbqus6gPEOdk7HfLsAX-1">
                    <mxGeometry relative="1" as="geometry"/>
                </mxCell>
                <mxCell id="Aw-TtiJFQ2EfJVWeR47O-1" value="Broker&lt;br&gt;ApolloServer" style="rounded=1;whiteSpace=wrap;html=1;" parent="1" vertex="1">
                    <mxGeometry x="340" y="380" width="120" height="60" as="geometry"/>
                </mxCell>
                <mxCell id="6" style="edgeStyle=none;html=1;startArrow=classic;startFill=1;" edge="1" parent="1" source="Aw-TtiJFQ2EfJVWeR47O-2" target="Aw-TtiJFQ2EfJVWeR47O-1">
                    <mxGeometry relative="1" as="geometry"/>
                </mxCell>
                <mxCell id="Aw-TtiJFQ2EfJVWeR47O-2" value="MongoDB" style="shape=cylinder3;whiteSpace=wrap;html=1;boundedLbl=1;backgroundOutline=1;size=15;" parent="1" vertex="1">
                    <mxGeometry x="229" y="380" width="60" height="60" as="geometry"/>
                </mxCell>
                <mxCell id="8" style="edgeStyle=none;html=1;entryX=0.5;entryY=1;entryDx=0;entryDy=0;startArrow=classic;startFill=1;rounded=1;" edge="1" parent="1" source="Aw-TtiJFQ2EfJVWeR47O-4" target="Aw-TtiJFQ2EfJVWeR47O-1">
                    <mxGeometry relative="1" as="geometry"/>
                </mxCell>
                <mxCell id="Aw-TtiJFQ2EfJVWeR47O-4" value="Fruitful&lt;br&gt;JavaScripts" style="rounded=1;whiteSpace=wrap;html=1;" parent="1" vertex="1">
                    <mxGeometry x="109" y="570" width="120" height="60" as="geometry"/>
                </mxCell>
                <mxCell id="Aw-TtiJFQ2EfJVWeR47O-6" style="edgeStyle=orthogonalEdgeStyle;rounded=0;orthogonalLoop=1;jettySize=auto;html=1;exitX=0.5;exitY=1;exitDx=0;exitDy=0;entryX=0.5;entryY=0;entryDx=0;entryDy=0;entryPerimeter=0;" parent="1" source="Aw-TtiJFQ2EfJVWeR47O-4" target="Aw-TtiJFQ2EfJVWeR47O-7" edge="1">
                    <mxGeometry relative="1" as="geometry">
                        <mxPoint x="169" y="640" as="sourcePoint"/>
                        <mxPoint x="169" y="680" as="targetPoint"/>
                    </mxGeometry>
                </mxCell>
                <mxCell id="Aw-TtiJFQ2EfJVWeR47O-7" value="SQLLite" style="shape=cylinder3;whiteSpace=wrap;html=1;boundedLbl=1;backgroundOutline=1;size=15;" parent="1" vertex="1">
                    <mxGeometry x="139" y="680" width="60" height="60" as="geometry"/>
                </mxCell>
                <mxCell id="Aw-TtiJFQ2EfJVWeR47O-8" value="Actor" style="shape=umlActor;verticalLabelPosition=bottom;verticalAlign=top;html=1;outlineConnect=0;" parent="1" vertex="1">
                    <mxGeometry x="384" y="90" width="30" height="60" as="geometry"/>
                </mxCell>
                <mxCell id="11" style="edgeStyle=none;html=1;startArrow=classic;startFill=1;" edge="1" parent="1" source="DEbqus6gPEOdk7HfLsAX-1">
                    <mxGeometry relative="1" as="geometry">
                        <mxPoint x="399" y="170" as="targetPoint"/>
                    </mxGeometry>
                </mxCell>
                <mxCell id="DEbqus6gPEOdk7HfLsAX-1" value="Lambda&lt;br&gt;Mart" style="rounded=1;whiteSpace=wrap;html=1;" parent="1" vertex="1">
                    <mxGeometry x="339" y="240" width="120" height="60" as="geometry"/>
                </mxCell>
                <mxCell id="7" style="edgeStyle=none;html=1;entryX=0.5;entryY=1;entryDx=0;entryDy=0;startArrow=classic;startFill=1;" edge="1" parent="1" source="DEbqus6gPEOdk7HfLsAX-9" target="Aw-TtiJFQ2EfJVWeR47O-1">
                    <mxGeometry relative="1" as="geometry"/>
                </mxCell>
                <mxCell id="DEbqus6gPEOdk7HfLsAX-9" value="Meaty&lt;br&gt;Pythons" style="rounded=1;whiteSpace=wrap;html=1;" parent="1" vertex="1">
                    <mxGeometry x="269" y="570" width="120" height="60" as="geometry"/>
                </mxCell>
                <mxCell id="DEbqus6gPEOdk7HfLsAX-10" style="edgeStyle=orthogonalEdgeStyle;rounded=0;orthogonalLoop=1;jettySize=auto;html=1;exitX=0.5;exitY=1;exitDx=0;exitDy=0;entryX=0.5;entryY=0;entryDx=0;entryDy=0;entryPerimeter=0;" parent="1" source="DEbqus6gPEOdk7HfLsAX-9" target="DEbqus6gPEOdk7HfLsAX-11" edge="1">
                    <mxGeometry relative="1" as="geometry">
                        <mxPoint x="328" y="640" as="sourcePoint"/>
                        <mxPoint x="328" y="680" as="targetPoint"/>
                    </mxGeometry>
                </mxCell>
                <mxCell id="DEbqus6gPEOdk7HfLsAX-11" value="Redis" style="shape=cylinder3;whiteSpace=wrap;html=1;boundedLbl=1;backgroundOutline=1;size=15;" parent="1" vertex="1">
                    <mxGeometry x="299" y="680" width="60" height="60" as="geometry"/>
                </mxCell>
                <mxCell id="9" style="edgeStyle=none;html=1;startArrow=classic;startFill=1;" edge="1" parent="1" source="DEbqus6gPEOdk7HfLsAX-13">
                    <mxGeometry relative="1" as="geometry">
                        <mxPoint x="400" y="440" as="targetPoint"/>
                    </mxGeometry>
                </mxCell>
                <mxCell id="DEbqus6gPEOdk7HfLsAX-13" value="Veggie&lt;br&gt;Gophers" style="rounded=1;whiteSpace=wrap;html=1;" parent="1" vertex="1">
                    <mxGeometry x="439" y="570" width="120" height="60" as="geometry"/>
                </mxCell>
                <mxCell id="DEbqus6gPEOdk7HfLsAX-14" style="edgeStyle=orthogonalEdgeStyle;rounded=0;orthogonalLoop=1;jettySize=auto;html=1;exitX=0.5;exitY=1;exitDx=0;exitDy=0;entryX=0.5;entryY=0;entryDx=0;entryDy=0;entryPerimeter=0;" parent="1" source="DEbqus6gPEOdk7HfLsAX-13" target="DEbqus6gPEOdk7HfLsAX-15" edge="1">
                    <mxGeometry relative="1" as="geometry">
                        <mxPoint x="509" y="640" as="sourcePoint"/>
                        <mxPoint x="509" y="680" as="targetPoint"/>
                    </mxGeometry>
                </mxCell>
                <mxCell id="DEbqus6gPEOdk7HfLsAX-15" value="Postgres" style="shape=cylinder3;whiteSpace=wrap;html=1;boundedLbl=1;backgroundOutline=1;size=15;" parent="1" vertex="1">
                    <mxGeometry x="469" y="680" width="60" height="60" as="geometry"/>
                </mxCell>
                <mxCell id="25" style="edgeStyle=none;rounded=1;html=1;exitX=0;exitY=0.5;exitDx=0;exitDy=0;exitPerimeter=0;entryX=1;entryY=0.5;entryDx=0;entryDy=0;fontFamily=Tahoma;startArrow=none;startFill=0;endArrow=classic;endFill=1;" edge="1" parent="1" source="nIXYVYbkgHjyp7PHmKPQ-1" target="DEbqus6gPEOdk7HfLsAX-1">
                    <mxGeometry relative="1" as="geometry"/>
                </mxCell>
                <mxCell id="nIXYVYbkgHjyp7PHmKPQ-1" value="NginX" style="shape=cylinder3;whiteSpace=wrap;html=1;boundedLbl=1;backgroundOutline=1;size=15;" parent="1" vertex="1">
                    <mxGeometry x="509" y="240" width="60" height="60" as="geometry"/>
                </mxCell>
                <mxCell id="10" style="edgeStyle=none;html=1;entryX=0.5;entryY=1;entryDx=0;entryDy=0;startArrow=classic;startFill=1;" edge="1" parent="1" source="3" target="Aw-TtiJFQ2EfJVWeR47O-1">
                    <mxGeometry relative="1" as="geometry"/>
                </mxCell>
                <mxCell id="3" value="Lambda&lt;br&gt;Market" style="rounded=1;whiteSpace=wrap;html=1;" vertex="1" parent="1">
                    <mxGeometry x="599" y="570" width="120" height="60" as="geometry"/>
                </mxCell>
                <mxCell id="4" style="edgeStyle=orthogonalEdgeStyle;rounded=0;orthogonalLoop=1;jettySize=auto;html=1;exitX=0.5;exitY=1;exitDx=0;exitDy=0;entryX=0.5;entryY=0;entryDx=0;entryDy=0;entryPerimeter=0;" edge="1" parent="1" source="3" target="5">
                    <mxGeometry relative="1" as="geometry">
                        <mxPoint x="669" y="640" as="sourcePoint"/>
                        <mxPoint x="669" y="680" as="targetPoint"/>
                    </mxGeometry>
                </mxCell>
                <mxCell id="5" value="MongoDB" style="shape=cylinder3;whiteSpace=wrap;html=1;boundedLbl=1;backgroundOutline=1;size=15;" vertex="1" parent="1">
                    <mxGeometry x="629" y="680" width="60" height="60" as="geometry"/>
                </mxCell>
                <mxCell id="13" value="&lt;p&gt;&lt;font face=&quot;Tahoma&quot;&gt;Stores item data&lt;/font&gt;&lt;/p&gt;" style="text;html=1;strokeColor=none;fillColor=none;align=center;verticalAlign=middle;whiteSpace=wrap;rounded=0;" vertex="1" parent="1">
                    <mxGeometry x="194" y="340" width="130" height="30" as="geometry"/>
                </mxCell>
                <mxCell id="14" value="&lt;p&gt;&lt;font face=&quot;Tahoma&quot;&gt;Serves website pages and images&lt;/font&gt;&lt;/p&gt;" style="text;html=1;strokeColor=none;fillColor=none;align=center;verticalAlign=middle;whiteSpace=wrap;rounded=0;" vertex="1" parent="1">
                    <mxGeometry x="474" y="190" width="130" height="30" as="geometry"/>
                </mxCell>
                <mxCell id="29" style="edgeStyle=none;rounded=1;html=1;entryX=1;entryY=0.5;entryDx=0;entryDy=0;entryPerimeter=0;fontFamily=Helvetica;fontColor=#E10098;startArrow=none;startFill=0;endArrow=classic;endFill=1;shape=link;width=16.36363636363636;" edge="1" parent="1" source="15" target="nIXYVYbkgHjyp7PHmKPQ-1">
                    <mxGeometry relative="1" as="geometry"/>
                </mxCell>
                <mxCell id="15" value="Gatsby.js" style="ellipse;whiteSpace=wrap;html=1;fontFamily=Tahoma;" vertex="1" parent="1">
                    <mxGeometry x="620" y="230" width="120" height="80" as="geometry"/>
                </mxCell>
                <mxCell id="18" value="Website pages are created with Gatsby, also generates fallback images" style="text;html=1;strokeColor=none;fillColor=none;align=center;verticalAlign=middle;whiteSpace=wrap;rounded=0;fontFamily=Tahoma;" vertex="1" parent="1">
                    <mxGeometry x="615" y="320" width="130" height="70" as="geometry"/>
                </mxCell>
                <mxCell id="24" value="Communicates with broker using Apollo Client" style="text;html=1;strokeColor=none;fillColor=none;align=center;verticalAlign=middle;whiteSpace=wrap;rounded=0;fontFamily=Tahoma;" vertex="1" parent="1">
                    <mxGeometry x="229" y="255" width="105" height="30" as="geometry"/>
                </mxCell>
                <mxCell id="27" value="&lt;font face=&quot;Helvetica&quot; color=&quot;#e10098&quot;&gt;&lt;b&gt;GraphQL&lt;/b&gt;&lt;/font&gt;" style="text;html=1;strokeColor=none;fillColor=none;align=center;verticalAlign=middle;whiteSpace=wrap;rounded=0;fontFamily=Tahoma;" vertex="1" parent="1">
                    <mxGeometry x="400" y="350" width="60" height="30" as="geometry"/>
                </mxCell>
                <mxCell id="28" value="&lt;font face=&quot;Helvetica&quot; color=&quot;#e10098&quot;&gt;&lt;b&gt;GraphQL&lt;/b&gt;&lt;/font&gt;" style="text;html=1;strokeColor=none;fillColor=none;align=center;verticalAlign=middle;whiteSpace=wrap;rounded=0;fontFamily=Tahoma;" vertex="1" parent="1">
                    <mxGeometry x="430" y="440" width="60" height="30" as="geometry"/>
                </mxCell>
            </root>
        </mxGraphModel>
    </diagram>
</mxfile>